<svg id="Layer_1" xmlns="http://www.w3.org/2000/svg" xmlns:xlink="http://www.w3.org/1999/xlink" viewBox="90.23 191 719.57 117.97"><defs><linearGradient id="linear-gradient" x1="638.38" y1="438.38" x2="261.62" y2="61.62" gradientTransform="matrix(1, 0, 0, 1, 0, 0)" gradientUnits="userSpaceOnUse"><stop offset="0" stop-color="#b76d00"/><stop offset=".14" stop-color="#dfb547"/><stop offset=".25" stop-color="#ffee7f"/><stop offset=".5" stop-color="#d79000"/><stop offset=".75" stop-color="#ffee7f"/><stop offset="1" stop-color="#d79000"/></linearGradient></defs><path d="M417.58,250c0,2.95-2.39,5.33-5.33,5.33H225.25v3.78c0,3.56-2.89,6.44-6.44,6.44s-6.44-2.89-6.44-6.44v-3.78h-28.74c-13.49,3.38-26.61,7.58-38.19,15.38-6.29,4.1-12.53,8.74-17.04,14.82,10.71-6.92,21.87-13.25,34.16-16.89,9.6-3.1,29.25-4.11,39.39-5.44l-21.81,11.62c-6.55,3.52-11.48,9.68-13.8,16.63-.59,1.77-.89,3.05-.68,4.46,.05,.25,.09,.39,.26,.63,.32,.48,1.2,1.21,2.43,1.82,4.64,2.3,11.19,3.14,15.79,.23,1.38-1.07,2.12-1.92,1.7-3.38-1.67-3.53-6.45-3.13-9.95-2.93l-.24-.97c3.5-1.63,7.58-2.96,11.48-1.02,5.28,2.5,5.43,9.24,1.55,13.11-3.02,3.31-7.39,4.84-11.7,5.38-6.53,.64-13.7-.53-18.73-5.59-3.77-3.84-3.7-10.46-2.13-14.98,1.27-4.16,3.37-8.01,6.07-11.39-17.07,2.58-29.49,7.4-42.67,19.43,5.38-16.88,13.61-30.83,30.45-38.46,2.02-.93,4.08-1.75,6.17-2.48h-23.76c-.6,1.29-1.42,2.51-2.49,3.57h0c-3.7,3.7-9.29,4.72-14.06,2.58l-25.58-11.49,25.58-11.49c4.77-2.14,10.37-1.11,14.06,2.58h0c1.07,1.07,1.89,2.28,2.49,3.57h23.53c-9.07-3.2-17.33-8.39-23.61-15.85-6.24-7.31-9.81-16.23-12.78-25.09,13.19,12.04,25.61,16.85,42.67,19.43-2.7-3.37-4.8-7.23-6.07-11.39-1.57-4.51-1.64-11.14,2.13-14.97,5.02-5.07,12.2-6.23,18.72-5.59,4.32,.55,8.69,2.07,11.7,5.38,3.87,3.87,3.75,10.59-1.55,13.11-3.91,1.95-7.99,.61-11.48-1.02l.24-.97c3.5,.2,8.28,.59,9.95-2.93,.43-1.46-.32-2.31-1.7-3.38-4.6-2.91-11.15-2.07-15.79,.23-1.23,.6-2.11,1.33-2.43,1.82-.17,.25-.2,.38-.26,.63-.22,1.41,.08,2.69,.68,4.46,2.32,6.95,7.25,13.11,13.8,16.63l21.81,11.62c-10.26-1.37-29.7-2.34-39.39-5.44-12.3-3.64-23.46-9.98-34.16-16.89,4.51,6.08,10.75,10.72,17.04,14.82,8.32,5.5,17.27,9.38,26.94,12.3,3.71,1.14,7.5,2.13,11.36,3.08h28.63v-3.78c0-3.56,2.89-6.44,6.44-6.44s6.44,2.89,6.44,6.44v3.78h186.99c2.95,0,5.33,2.39,5.33,5.33Zm366.61,11.49l25.58-11.49-25.58-11.49c-4.77-2.14-10.37-1.11-14.06,2.58-1.07,1.07-1.89,2.28-2.49,3.57h-23.76c2.09-.73,4.15-1.55,6.17-2.48,16.84-7.62,25.06-21.58,30.45-38.46-13.18,12.03-25.6,16.85-42.67,19.43,2.7-3.37,4.8-7.23,6.07-11.39,1.58-4.51,1.64-11.13-2.13-14.98-5.02-5.07-12.2-6.23-18.73-5.59-4.32,.55-8.69,2.07-11.7,5.38-3.88,3.87-3.74,10.61,1.55,13.11,3.91,1.95,7.99,.61,11.48-1.02l-.24-.97c-3.5,.2-8.28,.59-9.95-2.93-.43-1.46,.32-2.31,1.7-3.38,4.6-2.91,11.15-2.07,15.79,.23,1.23,.6,2.11,1.33,2.43,1.82,.17,.25,.2,.38,.26,.63,.22,1.41-.08,2.69-.68,4.46-2.32,6.95-7.25,13.11-13.8,16.63l-21.81,11.62c10.14-1.33,29.79-2.34,39.39-5.44,12.3-3.64,23.46-9.98,34.16-16.89-4.51,6.08-10.75,10.72-17.04,14.82-11.58,7.8-24.69,12-38.19,15.38h-28.74v-3.78c0-3.56-2.89-6.44-6.44-6.44s-6.44,2.89-6.44,6.44v3.78h-186.99c-2.95,0-5.33,2.39-5.33,5.33s2.39,5.33,5.33,5.33h186.99v3.78c0,3.56,2.89,6.44,6.44,6.44s6.44-2.89,6.44-6.44v-3.78h28.63c3.85,.95,7.65,1.94,11.36,3.08,9.67,2.92,18.62,6.8,26.94,12.3,6.29,4.1,12.53,8.74,17.04,14.82-10.71-6.92-21.86-13.25-34.16-16.89-9.69-3.1-29.13-4.07-39.39-5.44l21.81,11.62c6.55,3.52,11.48,9.68,13.8,16.63,.59,1.77,.89,3.05,.68,4.46-.05,.25-.09,.39-.26,.63-.32,.48-1.2,1.21-2.43,1.82-4.64,2.3-11.19,3.15-15.79,.23-1.38-1.07-2.13-1.92-1.7-3.38,1.67-3.53,6.45-3.13,9.95-2.93l.24-.97c-3.5-1.63-7.58-2.96-11.48-1.02-5.3,2.52-5.42,9.23-1.55,13.11,3.02,3.31,7.39,4.84,11.7,5.38,6.53,.63,13.7-.52,18.72-5.59,3.77-3.84,3.7-10.46,2.13-14.97-1.27-4.16-3.37-8.01-6.07-11.39,17.06,2.58,29.49,7.39,42.67,19.43-2.98-8.86-6.54-17.77-12.78-25.09-6.28-7.46-14.54-12.65-23.61-15.85h23.53c.6,1.29,1.42,2.51,2.49,3.57h0c3.7,3.7,9.29,4.73,14.06,2.58Z" fill="url(#linear-gradient)"/></svg>